PathFileType	4	(X/Y/Z)	Patient4_TMGait_0pt5_01_right_41.trc.trc
DataRate	CameraRate	NumFrames	NumMarkers	Units	OrigDataRate	OrigDataStartFrame	OrigNumFrames
74.468085106383	74.468085106383	5	33	mm	74.468085106383	106	       141
Frame#	Time	L.ASIS			Sacral			L.Shoulder			Chest			R.Shoulder			Neck			R.ASIS			R.Thigh.Superior			R.Thigh.Lateral			R.Thigh.Inferior			R.Patella			L.Thigh.Superior			L.Thigh.Lateral			L.Thigh.Inferior			L.Patella			L.Shank.Superior			L.Shank.Lateral			L.Shank.Inferior			R.Shank.Superior			R.Shank.Lateral			R.Shank.Inferior			R.Heel			R.Midfoot.Superior			R.Midfoot.Lateral			R.Toe			L.Heel			L.Midfoot.Lateral			L.Midfoot.Superior			L.Toe			L.Elbow			L.Wrist			R.Elbow			R.Wrist			
		X1	Y1	Z1	X2	Y2	Z2	X3	Y3	Z3	X4	Y4	Z4	X5	Y5	Z5	X6	Y6	Z6	X7	Y7	Z7	X8	Y8	Z8	X9	Y9	Z9	X10	Y10	Z10	X11	Y11	Z11	X12	Y12	Z12	X13	Y13	Z13	X14	Y14	Z14	X15	Y15	Z15	X16	Y16	Z16	X17	Y17	Z17	X18	Y18	Z18	X19	Y19	Z19	X20	Y20	Z20	X21	Y21	Z21	X22	Y22	Z22	X23	Y23	Z23	X24	Y24	Z24	X25	Y25	Z25	X26	Y26	Z26	X27	Y27	Z27	X28	Y28	Z28	X29	Y29	Z29	X30	Y30	Z30	X31	Y31	Z31	X32	Y32	Z32	X33	Y33	Z33	

106	55.400000000000	796.714248604531	966.371394791187	251.265358695512	574.542632584949	1012.576341083794	402.576090125160	756.963962471071	1441.134822253052	222.645918702229	853.494921315801	1373.267812310055	388.216323046497	761.255713757987	1445.750123061990	559.147256013708	747.556943029831	1502.246746738132	373.357978852415	796.849344251117	952.605969372209	526.427419983142	883.641240320642	789.575911041258	502.444581438965	849.846163645069	669.147248156800	580.133799006835	942.296152110017	632.251885242201	503.017712603308	970.484437961251	525.361901381794	529.565620806697	825.080038727703	745.866686898886	285.325844836004	724.633108984424	636.640725230091	230.982142654855	800.380239312649	553.817146558858	295.464609503955	794.160926191967	485.091959739459	309.079756573620	766.493982432810	415.481940091948	303.519980874800	673.987560534767	302.336365442645	257.836548054182	719.976262644696	192.754385692921	333.812604229370	909.030391624295	441.553920648720	535.889867738645	797.868191140430	376.257331267266	591.813494400941	811.388670118964	266.140032260193	545.283249495199	630.772353531711	162.193360390032	509.946776515620	805.060966086046	140.620381119837	559.458011454253	697.034356969731	118.402029316687	588.122941392299	889.942647444992	45.583251561151	594.126191140921	586.604272817711	39.254320606544	381.708775050985	660.547690093027	34.903721340663	300.936598076937	744.682628896243	95.722505034702	325.849692182482	872.770167223302	40.023088334054	298.355890701037	795.331458863759	1100.030003180003	77.185074254433	1032.655731554492	993.256357031237	59.990680923928	689.205400266651	1105.699325056622	673.443401833343	719.683888451022	844.928718897789	677.966371868462	
107	55.413428571429	796.183894414019	966.235344998872	251.215189601107	573.804872834098	1012.924026430178	401.625620519166	758.150791412185	1440.918950396299	221.927439480069	853.544537282236	1373.008471018438	388.132535586474	760.519326591742	1446.073378772788	558.419102769634	747.929080396607	1502.216006964341	372.464415874981	795.564000349903	952.602094270245	526.324023763777	882.233954311663	790.261807601052	501.910054698750	849.288096001573	669.536320946234	579.547702065683	941.246177668307	632.959043129402	501.933599507956	970.902202727773	527.977880251001	528.460595112208	822.211330215994	744.986266480077	285.307449450886	720.411468538797	636.826662077907	230.467277655523	794.939596394578	553.229805524723	294.943738973513	787.836239186206	484.737120952748	308.572835550549	760.226590020353	415.412196189771	302.971933814296	667.404225013433	302.454919449768	257.418673513005	713.316527521824	192.796917171570	333.458417020308	913.507591400640	442.621217432583	535.074526347291	806.595146648732	371.466958675759	591.828673999098	825.836132788642	262.240842068738	544.999466681389	651.236867085719	147.856466692143	510.643941613897	826.554594643725	136.978926189802	559.255610117406	720.367648901211	108.437857603808	588.719717505501	917.272081944945	47.478671314467	593.827703392765	579.878542601463	39.351487246751	381.621871101001	653.800199993689	34.902421732866	300.909978795425	737.961043662682	95.714819424284	325.723933212045	866.021544290497	39.990660192411	298.344373813337	797.983457391388	1100.307565648767	76.386495827184	1037.973923314621	1000.132394653078	59.450080195432	678.004978734318	1109.194854120066	673.246858209040	698.575984527669	847.712375295134	679.342299661243	
108	55.426857142857	795.537799041616	965.971497257808	251.301590973803	573.113261845035	1013.128154856427	400.852463213980	759.315430046629	1440.518909693064	221.348719841298	853.616599852444	1372.604979600939	388.172297733323	759.842216418766	1446.302212993023	557.824831508490	748.342370771553	1502.045530610454	371.696488371348	794.377288986419	952.411059738904	526.362885221135	880.527342225826	790.350004821889	501.547651144925	848.036450726967	669.399558964148	579.111303902115	939.433470907616	632.916966834637	501.033359156888	970.374481343528	530.039454732855	527.414436096682	819.427435058349	744.075850470764	285.249912460129	716.245195029788	636.971384491075	230.010724352664	789.624502196746	552.632043028043	294.425275514995	781.685198946968	484.370474014520	308.062214489431	754.082871320103	415.301803338392	302.463004734145	660.898590409966	302.570228708327	257.039037642089	706.706157564581	192.813952664284	333.129522266427	917.293674760384	443.390877493021	534.397682199989	815.239949645391	366.449057048783	592.175249030423	840.314302167807	258.483287651862	545.000652152630	672.651846425574	133.738598626490	511.804486572799	848.336848639807	133.809219232498	559.351132588035	744.482245837727	98.945147644870	589.714701089632	944.661590251844	50.263041317074	593.715047066156	573.161855155438	39.447390519721	381.537242111281	647.053620300797	34.904312366816	300.888943838649	731.239350633785	95.700549435812	325.613470263117	859.272480520724	39.954710545709	298.334434599347	800.396020075999	1100.337816529929	75.775903852277	1042.597105637405	1006.113899865372	59.198360938116	667.032063218434	1112.867101526578	672.993777085871	678.664827605031	851.149145200505	680.572553301210	
109	55.440285714286	794.794547454121	965.587971961427	251.506904008932	572.475312332597	1013.187469341396	400.262394807448	760.435896161783	1439.948806320457	220.914657949581	853.706294771597	1372.066625481760	388.329815795998	759.242397559946	1446.430917051321	557.368028761003	748.788841107758	1501.742282578779	371.066005523566	793.302917735847	952.045364086210	526.537978727043	878.540275327878	789.839388073190	501.377330699954	846.079735848519	668.749536641207	578.851316018438	936.891075857999	632.147129782421	500.367382638624	968.924756745146	531.532654855995	526.448485395769	816.746688184936	743.133753051251	285.153775268614	712.150820739269	637.072346287670	229.625871971753	784.444278112320	552.018567120355	293.939889746419	775.722485962283	483.986305802739	307.574223713687	748.071045781931	415.149315948147	302.014099363009	654.483840544341	302.681894898334	256.713479555676	700.151059989713	192.804266269892	332.839681901852	920.355527397270	443.896011215534	533.867723289664	823.712315894880	361.337439357521	592.814212381481	854.655598116708	255.010564603080	545.239720361895	694.775452002113	120.157713829048	513.327138948643	870.158006449036	131.252701058328	559.671093632080	769.095043789886	90.144608251180	590.987574426811	971.771433471856	53.998287654418	593.686680367764	566.448009125083	39.539339475568	381.460654351131	640.306082632381	34.909847083216	300.875346701480	724.515835238481	95.680072305869	325.522083168280	852.520391876815	39.915205913061	298.326088832615	802.571971486746	1100.133598997713	75.356848702666	1046.556242905566	1011.122968517742	59.221318299305	656.468262696502	1116.644465086559	672.676919699950	660.030176235398	855.023209150086	681.648663799385	
110	55.453714285714	793.981571356929	965.093758383750	251.816746998068	571.902434031574	1013.104087559598	399.856284623115	761.490360653153	1439.230657960032	220.629957973142	853.808189598001	1371.408181416666	388.598408027013	758.736469990333	1446.455808304430	557.053100828598	749.255420447378	1501.317006921699	370.585458180383	792.353577459116	951.521965353855	526.842029742538	876.306616551751	788.750319015414	501.421060827706	843.445942306953	667.619305947148	578.795657074395	933.686518183046	630.698267932501	499.977803372024	966.608667552309	532.459235274397	525.588549836892	814.183611210785	742.157781345495	285.038687800849	708.147914153572	637.129103737223	229.325605676288	779.400468685422	551.384600452188	293.526055348982	769.950173100543	483.578859341737	307.140484741527	742.190303152228	414.956026176369	301.646302047920	648.168096091237	302.789939704212	256.454939986951	693.652798072750	192.768306257040	332.600931537197	922.675077123783	444.167465359630	533.494005692301	831.888132314575	356.259030308657	593.689298243924	868.653972385031	251.931252623816	545.660101537818	717.261031232209	107.397416595279	515.076996967395	891.708086227467	129.388552525777	560.138765490984	793.821885242291	82.201186991410	592.397795857906	998.209762076368	58.643913882430	593.656289872233	559.731284781976	39.624460222858	381.397570594548	633.555562890120	34.918399853786	300.870683209505	717.788918642889	95.654481547469	325.452186970191	845.762883452258	39.873258907047	298.319903207925	804.504818789399	1099.713942003822	75.138453207083	1049.878235308796	1015.101435206121	59.508428718768	646.497775948727	1120.436137690181	672.303560571706	642.757437228882	859.128730412425	682.562710213107	
